<svg width="333" height="96" viewBox="0 0 333 96" fill="none" xmlns="http://www.w3.org/2000/svg">
<path d="M283.572 95.9991C274.465 95.9991 266.219 93.8453 258.834 89.5377C251.45 85.2301 245.604 79.4456 241.296 72.1842C236.988 64.9228 234.834 56.9229 234.834 48.1846C234.834 39.3232 236.988 31.3234 241.296 24.185C245.604 17.0467 251.45 11.3237 258.834 7.0161C266.219 2.70849 274.465 0.554688 283.572 0.554688C292.926 0.554688 301.233 2.70849 308.495 7.0161C315.879 11.3237 321.664 17.1082 325.848 24.3696C330.156 31.508 332.31 39.4463 332.31 48.1846C332.31 56.9229 330.156 64.9228 325.848 72.1842C321.664 79.4456 315.879 85.2301 308.495 89.5377C301.11 93.8453 292.803 95.9991 283.572 95.9991ZM283.572 75.8764C288.864 75.8764 293.541 74.6457 297.603 72.1842C301.664 69.5996 304.864 66.2151 307.202 62.0305C309.664 57.846 310.895 53.2922 310.895 48.3692C310.895 43.3232 309.664 38.7079 307.202 34.5233C304.864 30.3388 301.664 27.0158 297.603 24.5543C293.541 21.9697 288.864 20.6774 283.572 20.6774C278.403 20.6774 273.726 21.9697 269.542 24.5543C265.48 27.0158 262.219 30.3388 259.757 34.5233C257.419 38.7079 256.249 43.3232 256.249 48.3692C256.249 53.2922 257.419 57.846 259.757 62.0305C262.219 66.2151 265.48 69.5996 269.542 72.1842C273.726 74.6457 278.403 75.8764 283.572 75.8764Z" fill="black"></path>
<path d="M204.893 93.7845H183.478V32.6502C183.478 16.2581 196.767 2.96973 213.159 2.96973H237.939V23.8309H212.313C208.215 23.8309 204.893 27.153 204.893 31.251V93.7845Z" fill="black"></path>
<path d="M132.213 95.9983C122.982 95.9983 114.675 93.9676 107.29 89.9061C99.9058 85.7216 94.0598 79.9986 89.7522 72.7372C85.5676 65.4758 83.4753 57.1067 83.4753 47.6299C83.4753 39.0147 85.383 31.0764 89.1983 23.815C93.1367 16.5536 98.6135 10.769 105.629 6.46142C112.644 2.15381 120.767 0 129.998 0C139.351 0 147.351 2.09227 153.997 6.27681C160.643 10.3383 165.751 15.8151 169.32 22.7073C173.012 29.5995 174.858 37.2301 174.858 45.5992V53.1683H100.275L103.967 46.153C103.598 52.0606 104.583 57.3528 106.921 62.0297C109.26 66.7065 112.583 70.3988 116.89 73.1064C121.198 75.814 126.244 77.1679 132.028 77.1679C137.444 77.1679 142.305 75.9987 146.613 73.6602C151.043 71.1987 154.489 67.6296 156.951 62.9527L173.381 71.4449C169.443 79.3217 163.905 85.4139 156.766 89.7215C149.628 93.906 141.444 95.9983 132.213 95.9983ZM105.075 40.2454H153.443C153.074 36.0609 151.843 32.3687 149.751 29.1687C147.782 25.9688 145.074 23.5073 141.628 21.7842C138.182 19.9381 134.244 19.015 129.813 19.015C125.259 19.015 121.198 19.9996 117.629 21.9688C114.182 23.815 111.413 26.338 109.321 29.5379C107.229 32.7379 105.813 36.3071 105.075 40.2454Z" fill="black"></path>
<path d="M78.8426 93.7823H20.6897C13.9206 93.7823 8.75149 92.0592 5.18233 88.6132C1.73623 85.044 0.0131865 81.0441 0.0131865 76.6134C-0.109888 72.675 0.628561 69.2904 2.22853 66.4597C3.8285 63.629 6.41307 61.0444 9.98224 58.706L55.766 26.2143C56.7506 25.3527 57.2429 24.4297 57.2429 23.4451C57.2429 22.5836 56.9353 22.0297 56.3199 21.7836C55.8276 21.4143 55.2122 21.2297 54.4738 21.2297H2.41314V2.95312H58.9045C65.6736 2.95312 70.7812 4.73771 74.2273 8.30687C77.7964 11.753 79.581 15.6914 79.581 20.1221C79.581 24.0604 78.781 27.445 77.1811 30.2757C75.7042 33.1064 73.1811 35.691 69.612 38.0294L23.8282 70.7058C22.7205 71.4442 22.1666 72.3673 22.1666 73.475C22.1666 74.2134 22.4128 74.7672 22.9051 75.1365C23.5205 75.3826 24.1974 75.5057 24.9358 75.5057H78.8426V93.7823Z" fill="black"></path>
</svg>